<svg width="30" height="30" viewBox="0 0 30 30" fill="none" xmlns="http://www.w3.org/2000/svg">
<mask id="path-1-inside-1_267_91" fill="white">
<path d="M10 20L10 10L20 10L20 20L10 20Z"/>
</mask>
<path d="M10 20L9 20L9 21L10 21L10 20ZM11 20L11 10L9 10L9 20L11 20ZM20 19L10 19L10 21L20 21L20 19Z" fill="white" mask="url(#path-1-inside-1_267_91)"/>
<g filter="url(#filter0_f_267_91)">
<mask id="path-3-inside-2_267_91" fill="white">
<path d="M10 20L10 10L20 10L20 20L10 20Z"/>
</mask>
<path d="M10 20L9 20L9 21L10 21L10 20ZM11 20L11 10L9 10L9 20L11 20ZM20 19L10 19L10 21L20 21L20 19Z" fill="white" mask="url(#path-3-inside-2_267_91)"/>
</g>
<defs>
<filter id="filter0_f_267_91" x="0" y="0" width="30" height="30" filterUnits="userSpaceOnUse" color-interpolation-filters="sRGB">
<feFlood flood-opacity="0" result="BackgroundImageFix"/>
<feBlend mode="normal" in="SourceGraphic" in2="BackgroundImageFix" result="shape"/>
<feGaussianBlur stdDeviation="5" result="effect1_foregroundBlur_267_91"/>
</filter>
</defs>
</svg>
