<svg width="297" height="89" viewBox="0 0 297 89" fill="none" xmlns="http://www.w3.org/2000/svg">
<rect x="0.5" y="0.5" width="296" height="88" stroke="white" stroke-opacity="0.2"/>
<g clip-path="url(#clip0_261_13)">
<path d="M85.2478 35.681H65.2357L64.5209 36.2522V54.0287H70.0242V47.3178L70.5244 46.8181H85.2476C88.964 46.8181 90.6795 45.8188 90.6795 43.2487V39.1793C90.6797 36.6805 88.9642 35.681 85.2478 35.681ZM85.2478 42.2489C85.2478 43.4625 84.4615 43.6767 82.6748 43.6767H70.5961L70.0242 43.1771V39.3933L70.5244 38.8936H82.6746C84.39 38.8936 85.2475 39.1078 85.2475 40.3214L85.2478 42.2489ZM100.829 39.0363L105.617 46.0327L105.331 46.6752H94.7535L92.0376 50.0307H107.761L108.905 50.6731L111.335 54.0286H117.696L103.759 35.4668M163.938 50.4589V45.4617L164.51 44.9618H175.159V41.8206H158.292V54.0286H183.164V50.8873H164.581M158.292 35.681H183.378V39.1078H158.292V35.681ZM130.346 38.965H150.573C150.287 36.3949 148.643 35.681 144.641 35.681H130.132C125.558 35.681 124.128 36.5377 124.128 40.0358V49.745C124.128 53.1719 125.558 54.1 130.132 54.1H144.641C148.715 54.1 150.287 53.3147 150.43 50.6731H130.346L129.775 50.1019V39.3933M50.9413 42.8201H36.2897L35.8608 42.3205V39.1792L36.2897 38.8223H56.0873L56.3732 38.1798C55.7299 36.4663 53.9431 35.6097 50.7269 35.6097H36.9329C32.3588 35.6097 30.9293 36.4664 30.9293 39.9644V42.0349C30.9293 45.4618 32.3588 46.3899 36.9329 46.3899H51.5846L52.0134 46.8181V50.102L51.6561 50.6019H30.5004C30.5004 50.6019 30.0002 50.8873 30.0002 50.9588C30.3576 53.3861 32.0014 54.0286 35.9323 54.0286H50.9414C55.5156 54.0286 57.0166 53.1719 57.0166 49.6738V47.175C57.0165 43.7483 55.5156 42.8201 50.9413 42.8201ZM199.173 35.6096H190.883L190.454 36.4663L199.602 43.1772C201.318 42.1776 203.247 41.1782 205.249 40.1786M206.607 48.1745L214.683 54.0286H222.974L223.331 53.2432L211.324 44.4621C209.751 45.6757 208.108 46.8894 206.607 48.1745Z" fill="white"/>
<path d="M197.958 54.0286H190.454L189.811 53.0291C194.885 48.1031 217.613 27.114 267 24.9009C267 24.9009 225.618 26.3286 197.958 54.0286Z" fill="#F86205"/>
</g>
<mask id="path-5-inside-1_261_13" fill="white">
<path d="M0 0H10V10H0V0Z"/>
</mask>
<path d="M0 0V-1H-1V0H0ZM0 1H10V-1H0V1ZM1 10V0H-1V10H1Z" fill="white" mask="url(#path-5-inside-1_261_13)"/>
<mask id="path-7-inside-2_261_13" fill="white">
<path d="M297 0L297 10L287 10L287 -4.37114e-07L297 0Z"/>
</mask>
<path d="M297 0L298 4.37114e-08L298 -1L297 -1L297 0ZM296 -4.37114e-08L296 10L298 10L298 4.37114e-08L296 -4.37114e-08ZM287 1L297 1L297 -1L287 -1L287 1Z" fill="white" mask="url(#path-7-inside-2_261_13)"/>
<mask id="path-9-inside-3_261_13" fill="white">
<path d="M297 89L287 89L287 79L297 79L297 89Z"/>
</mask>
<path d="M297 89L297 90L298 90L298 89L297 89ZM297 88L287 88L287 90L297 90L297 88ZM296 79L296 89L298 89L298 79L296 79Z" fill="white" mask="url(#path-9-inside-3_261_13)"/>
<mask id="path-11-inside-4_261_13" fill="white">
<path d="M0 89L-4.37114e-07 79L10 79L10 89L0 89Z"/>
</mask>
<path d="M0 89L-1 89L-1 90L4.37114e-08 90L0 89ZM1 89L1 79L-1 79L-1 89L1 89ZM10 88L-4.37114e-08 88L4.37114e-08 90L10 90L10 88Z" fill="white" mask="url(#path-11-inside-4_261_13)"/>
<defs>
<clipPath id="clip0_261_13">
<rect width="237" height="29" fill="white" transform="translate(30 25)"/>
</clipPath>
</defs>
</svg>
